<svg xmlns="http://www.w3.org/2000/svg" width="301" height="264" viewBox="0 0 301 264" fill="none">
  <path d="M112.529 85.125C112.529 100.658 99.9369 113.25 84.4039 113.25C68.8709 113.25 56.2789 100.658 56.2789 85.125C56.2789 69.592 68.8709 57 84.4039 57C99.9369 57 112.529 69.592 112.529 85.125Z" fill="black"/>
  <path d="M37.5289 0.75C16.8183 0.75 0.0289307 17.5393 0.0289307 38.25V225.75C0.0289307 246.461 16.8183 263.25 37.5289 263.25H262.529C283.24 263.25 300.029 246.461 300.029 225.75V38.25C300.029 17.5393 283.24 0.75 262.529 0.75H37.5289ZM262.529 19.5C272.884 19.5 281.279 27.8947 281.279 38.25V160.125L210.472 123.615C206.862 121.81 202.503 122.518 199.65 125.371L130.084 194.937L80.2293 161.7C76.5109 159.221 71.5598 159.711 68.3998 162.871L18.7789 207V38.25C18.7789 27.8947 27.1736 19.5 37.5289 19.5H262.529Z" fill="black"/>
</svg>